# xmcd
#
# Track frame offsets:
#	150
#	15394
#	34353
#	52408
#	71650
#	84225
#	97035
#	117928
#	133798
#	150913
#	167786
#	183301
#	203097
#	221064
#	241893
#	259207
#	274824
#	291132
#	311635
#	327861
#
# Disc length: 4615 seconds
#
# Revision: 2
# Processed by: cddbd v1.5.2PL0 Copyright (c) Steve Scherf et al.
# Submitted via: audiograbber 1.83.01
#
DISCID=27120514
DTITLE=Various Artist - Promo Only - February 2005
DYEAR=2005
DGENRE=Urban
TTITLE0=Mariah Carey - It's Like That
TTITLE1=Trillville ft Cutty - Some Cut 
TTITLE2=John Legend - Ordinary People
TTITLE3=Ciara ft Ludacris - Oh
TTITLE4=New Edition - Last Time
TTITLE5=Nitty - Hey Bitty 
TTITLE6=TRU - Where U From 
TTITLE7=Alicia Keyes ft Bimbo - Karma
TTITLE8=B5 - All I Do
TTITLE9=Tyra - Country Boy
TTITLE10=The Game ft 50 Cent - Hate It Or Love It [Album Version]
TTITLE11=Chingy ft Janet Jackson - Don't Worry
TTITLE12=Amerie - 1 Thing
TTITLE13=Usher ft Fabolous - Caught Up [Remix Clean]
TTITLE14=Jennifer Lopez ft Fabolous - Get Right 
TTITLE15=Tori Alamaze - Don't Cha 
TTITLE16=Guerilla Black ft Mario Winans - You're The One
TTITLE17=Cam'ron ft Kanye West and Syleena Johnson - Down And Out 
TTITLE18=N2U ft Jermaine Dupri - Baby Mama Love 
TTITLE19=Tango ft Bone Crusher and David Banner - Wobble And Shake It 
EXTD=
EXTT0=
EXTT1=
EXTT2=
EXTT3=
EXTT4=
EXTT5=
EXTT6=
EXTT7=
EXTT8=
EXTT9=
EXTT10=
EXTT11=
EXTT12=
EXTT13=
EXTT14=
EXTT15=
EXTT16=
EXTT17=
EXTT18=
EXTT19=
PLAYORDER=
